<?xml version="1.0"?>
<svg xmlns="http://www.w3.org/2000/svg" xmlns:xlink="http://www.w3.org/1999/xlink" xmlns:svgjs="http://svgjs.com/svgjs" version="1.1" width="512" height="512" x="0" y="0" viewBox="0 0 512 512" style="enable-background:new 0 0 512 512" xml:space="preserve" class=""><g>
<g xmlns="http://www.w3.org/2000/svg">
	<g>
		<g>
			<path d="M160,328c0,53.019,42.981,96,96,96s96-42.981,96-96s-42.981-96-96-96C203.003,232.053,160.053,275.003,160,328z M256,264     c35.346,0,64,28.654,64,64c0,35.346-28.654,64-64,64c-35.346,0-64-28.654-64-64C192,292.654,220.654,264,256,264z" fill="#c4c4c4" data-original="#000000" style="" class=""/>
			<rect x="384" y="200" width="64" height="32" fill="#c4c4c4" data-original="#000000" style="" class=""/>
			<rect x="480" y="264" width="32" height="32" fill="#c4c4c4" data-original="#000000" style="" class=""/>
			<rect x="480" y="328" width="32" height="32" fill="#c4c4c4" data-original="#000000" style="" class=""/>
			<polygon points="364.496,136 348.496,72 256,72 256,104 323.504,104 339.504,168 480,168 480,232 512,232 512,136    " fill="#c4c4c4" data-original="#000000" style="" class=""/>
			<polygon points="480,456 32,456 32,248 0,248 0,488 512,488 512,392 480,392    " fill="#c4c4c4" data-original="#000000" style="" class=""/>
			<path d="M64,248h96v-64h64V88h-64V24H64v64H0v96h64V248z M32,152v-32h64V56h32v64h64v32h-64v64H96v-64H32z" fill="#c4c4c4" data-original="#000000" style="" class=""/>
		</g>
	</g>
</g>
<g xmlns="http://www.w3.org/2000/svg">
</g>
<g xmlns="http://www.w3.org/2000/svg">
</g>
<g xmlns="http://www.w3.org/2000/svg">
</g>
<g xmlns="http://www.w3.org/2000/svg">
</g>
<g xmlns="http://www.w3.org/2000/svg">
</g>
<g xmlns="http://www.w3.org/2000/svg">
</g>
<g xmlns="http://www.w3.org/2000/svg">
</g>
<g xmlns="http://www.w3.org/2000/svg">
</g>
<g xmlns="http://www.w3.org/2000/svg">
</g>
<g xmlns="http://www.w3.org/2000/svg">
</g>
<g xmlns="http://www.w3.org/2000/svg">
</g>
<g xmlns="http://www.w3.org/2000/svg">
</g>
<g xmlns="http://www.w3.org/2000/svg">
</g>
<g xmlns="http://www.w3.org/2000/svg">
</g>
<g xmlns="http://www.w3.org/2000/svg">
</g>
</g></svg>
